<svg xmlns="http://www.w3.org/2000/svg" viewBox="0 0 900 760" role="img" aria-labelledby="title desc">
  <title id="title">굿맨비뇨기과 임시 히어로 이미지</title>
  <desc id="desc">병원 상담 공간을 표현한 시안용 임시 그래픽</desc>
  <defs>
    <linearGradient id="wall" x1="0" x2="1" y1="0" y2="1">
      <stop offset="0" stop-color="#f9fbfc"/>
      <stop offset="1" stop-color="#dcebf0"/>
    </linearGradient>
    <linearGradient id="glass" x1="0" x2="1" y1="0" y2="1">
      <stop offset="0" stop-color="#e7f4f5"/>
      <stop offset="1" stop-color="#b7d8df"/>
    </linearGradient>
    <linearGradient id="coat" x1="0" x2="1" y1="0" y2="1">
      <stop offset="0" stop-color="#ffffff"/>
      <stop offset="1" stop-color="#e7edf4"/>
    </linearGradient>
    <filter id="shadow" x="-20%" y="-20%" width="140%" height="140%">
      <feDropShadow dx="0" dy="18" stdDeviation="18" flood-color="#14213d" flood-opacity=".18"/>
    </filter>
  </defs>
  <rect width="900" height="760" rx="18" fill="url(#wall)"/>
  <path d="M0 581 C184 506 301 632 469 557 C633 484 714 381 900 438 L900 760 L0 760 Z" fill="#d3e5ec"/>
  <rect x="74" y="82" width="330" height="236" rx="16" fill="#fff" filter="url(#shadow)"/>
  <rect x="105" y="113" width="268" height="32" rx="16" fill="#d7e7ed"/>
  <rect x="105" y="166" width="220" height="16" rx="8" fill="#8bb8c4"/>
  <rect x="105" y="199" width="245" height="16" rx="8" fill="#c4d8e1"/>
  <rect x="105" y="232" width="182" height="16" rx="8" fill="#c4d8e1"/>
  <circle cx="339" cy="264" r="26" fill="#087f8c"/>
  <path d="M328 264 L337 273 L353 252" fill="none" stroke="#fff" stroke-width="7" stroke-linecap="round" stroke-linejoin="round"/>
  <rect x="494" y="64" width="294" height="406" rx="28" fill="url(#glass)" filter="url(#shadow)"/>
  <path d="M530 109 H752 V425 H530 Z" fill="#eef8fa" opacity=".68"/>
  <path d="M568 425 V109" stroke="#b2d2dc" stroke-width="6"/>
  <path d="M714 425 V109" stroke="#b2d2dc" stroke-width="6"/>
  <path d="M530 231 H752" stroke="#b2d2dc" stroke-width="6"/>
  <path d="M530 350 H752" stroke="#b2d2dc" stroke-width="6"/>
  <ellipse cx="494" cy="675" rx="282" ry="40" fill="#b9ced7" opacity=".5"/>
  <path d="M280 373 C297 326 332 299 381 299 C433 299 470 326 485 373 L504 612 H261 Z" fill="url(#coat)" filter="url(#shadow)"/>
  <path d="M322 367 L377 622 L430 367" fill="#f9fbfd"/>
  <path d="M350 393 L378 437 L407 393 L391 612 H363 Z" fill="#0b5f70"/>
  <path d="M274 380 C216 404 178 472 166 593 L256 610 Z" fill="#ffffff"/>
  <path d="M493 381 C558 407 591 474 604 593 L512 610 Z" fill="#ffffff"/>
  <path d="M325 281 C327 326 349 350 381 350 C413 350 434 326 437 281 Z" fill="#d9a77f"/>
  <path d="M304 223 C302 164 336 124 383 124 C433 124 465 166 460 226 C455 285 426 321 382 321 C338 321 307 285 304 223 Z" fill="#efbd91"/>
  <path d="M301 229 C295 170 326 112 383 112 C439 112 470 162 463 226 C449 200 414 194 369 180 C337 199 317 215 301 229 Z" fill="#28374d"/>
  <path d="M338 243 C354 256 407 256 425 243" fill="none" stroke="#bf7f64" stroke-width="7" stroke-linecap="round"/>
  <circle cx="356" cy="221" r="6" fill="#26364a"/>
  <circle cx="412" cy="221" r="6" fill="#26364a"/>
  <rect x="563" y="506" width="234" height="120" rx="16" fill="#ffffff" filter="url(#shadow)"/>
  <rect x="596" y="537" width="66" height="58" rx="8" fill="#e7f2f5"/>
  <path d="M611 566 H647 M629 548 V584" stroke="#087f8c" stroke-width="8" stroke-linecap="round"/>
  <rect x="683" y="542" width="80" height="12" rx="6" fill="#8bb8c4"/>
  <rect x="683" y="569" width="58" height="12" rx="6" fill="#cadbe2"/>
  <rect x="128" y="514" width="114" height="90" rx="12" fill="#ffffff" filter="url(#shadow)"/>
  <rect x="152" y="537" width="66" height="10" rx="5" fill="#8bb8c4"/>
  <rect x="152" y="562" width="46" height="10" rx="5" fill="#cadbe2"/>
</svg>
