<svg xmlns="http://www.w3.org/2000/svg" viewBox="0 0 860 860" role="img" aria-labelledby="title desc">
  <title id="title">조루센터 임시 이미지</title>
  <desc id="desc">시계와 상담 그래픽으로 표현한 임시 이미지</desc>
  <defs>
    <linearGradient id="bg" x1="0" x2="1" y1="0" y2="1">
      <stop offset="0" stop-color="#243b6b"/>
      <stop offset="1" stop-color="#8d78c4"/>
    </linearGradient>
  </defs>
  <rect width="860" height="860" fill="url(#bg)"/>
  <path d="M0 620 C170 540 312 626 456 556 C601 486 728 434 860 510 V860 H0 Z" fill="#131f3b" opacity=".24"/>
  <circle cx="428" cy="420" r="224" fill="#ffffff" opacity=".16"/>
  <circle cx="428" cy="420" r="164" fill="#ffffff" opacity=".82"/>
  <circle cx="428" cy="420" r="126" fill="#e9eff8"/>
  <path d="M428 324 V420 L506 476" fill="none" stroke="#0b6571" stroke-width="22" stroke-linecap="round" stroke-linejoin="round"/>
  <path d="M331 607 C370 568 489 568 529 607" fill="none" stroke="#ffffff" stroke-width="26" stroke-linecap="round" opacity=".72"/>
  <rect x="152" y="170" width="238" height="120" rx="26" fill="#ffffff" opacity=".2"/>
  <rect x="190" y="207" width="150" height="16" rx="8" fill="#ffffff" opacity=".72"/>
  <rect x="190" y="242" width="102" height="16" rx="8" fill="#ffffff" opacity=".44"/>
  <rect x="506" y="578" width="218" height="102" rx="24" fill="#ffffff" opacity=".22"/>
  <rect x="544" y="614" width="122" height="16" rx="8" fill="#ffffff" opacity=".72"/>
  <rect x="544" y="648" width="86" height="16" rx="8" fill="#ffffff" opacity=".44"/>
</svg>
