<svg xmlns="http://www.w3.org/2000/svg" viewBox="0 0 860 860" role="img" aria-labelledby="title desc">
  <title id="title">외래검진센터 임시 이미지</title>
  <desc id="desc">검진 차트와 의료 장비를 표현한 임시 이미지</desc>
  <defs>
    <linearGradient id="bg" x1="0" x2="1" y1="0" y2="1">
      <stop offset="0" stop-color="#1e485e"/>
      <stop offset="1" stop-color="#79b6a7"/>
    </linearGradient>
  </defs>
  <rect width="860" height="860" fill="url(#bg)"/>
  <path d="M0 674 C170 560 330 714 516 610 C666 526 732 494 860 532 V860 H0 Z" fill="#0b2134" opacity=".22"/>
  <rect x="168" y="138" width="346" height="502" rx="28" fill="#ffffff" opacity=".88"/>
  <rect x="214" y="202" width="212" height="24" rx="12" fill="#6aaeba"/>
  <rect x="214" y="268" width="246" height="18" rx="9" fill="#c7dce3"/>
  <rect x="214" y="316" width="204" height="18" rx="9" fill="#c7dce3"/>
  <rect x="214" y="364" width="236" height="18" rx="9" fill="#c7dce3"/>
  <path d="M240 472 L290 522 L414 438" fill="none" stroke="#087f8c" stroke-width="24" stroke-linecap="round" stroke-linejoin="round"/>
  <circle cx="606" cy="516" r="116" fill="#ffffff" opacity=".2"/>
  <circle cx="606" cy="516" r="76" fill="none" stroke="#ffffff" stroke-width="24" opacity=".82"/>
  <path d="M662 572 L734 644" stroke="#ffffff" stroke-width="28" stroke-linecap="round" opacity=".82"/>
</svg>
