<svg xmlns="http://www.w3.org/2000/svg" viewBox="0 0 860 860" role="img" aria-labelledby="title desc">
  <title id="title">남성 클리닉 임시 이미지</title>
  <desc id="desc">의료 상담 공간을 표현한 임시 그래픽</desc>
  <defs>
    <linearGradient id="bg" x1="0" x2="1" y1="0" y2="1">
      <stop offset="0" stop-color="#244f94"/>
      <stop offset="1" stop-color="#6ebfc4"/>
    </linearGradient>
    <linearGradient id="coat" x1="0" x2="1" y1="0" y2="1">
      <stop offset="0" stop-color="#ffffff"/>
      <stop offset="1" stop-color="#e3edf4"/>
    </linearGradient>
  </defs>
  <rect width="860" height="860" fill="url(#bg)"/>
  <circle cx="694" cy="172" r="188" fill="#ffffff" opacity=".12"/>
  <circle cx="156" cy="694" r="264" fill="#0a243f" opacity=".18"/>
  <rect x="94" y="424" width="672" height="288" rx="30" fill="#ffffff" opacity=".2"/>
  <path d="M276 708 C289 558 349 488 430 488 C511 488 571 558 584 708 Z" fill="url(#coat)"/>
  <path d="M360 501 L430 632 L500 501 L472 708 H388 Z" fill="#0b6571"/>
  <circle cx="430" cy="328" r="118" fill="#f0b889"/>
  <path d="M309 322 C310 218 370 160 435 160 C511 160 558 229 548 332 C518 295 466 289 406 262 C365 286 335 305 309 322 Z" fill="#182947"/>
  <path d="M372 356 C402 380 459 380 489 356" fill="none" stroke="#b56f54" stroke-width="12" stroke-linecap="round"/>
  <circle cx="390" cy="322" r="9" fill="#17233d"/>
  <circle cx="475" cy="322" r="9" fill="#17233d"/>
  <rect x="560" y="494" width="160" height="92" rx="18" fill="#ffffff" opacity=".86"/>
  <path d="M606 540 H674 M640 506 V574" stroke="#087f8c" stroke-width="16" stroke-linecap="round"/>
</svg>
