<svg xmlns="http://www.w3.org/2000/svg" viewBox="0 0 860 860" role="img" aria-labelledby="title desc">
  <title id="title">온라인 상담 임시 이미지</title>
  <desc id="desc">상담 말풍선과 의료 메시지를 표현한 임시 이미지</desc>
  <defs>
    <linearGradient id="bg" x1="0" x2="1" y1="0" y2="1">
      <stop offset="0" stop-color="#1f3150"/>
      <stop offset="1" stop-color="#0a7c86"/>
    </linearGradient>
  </defs>
  <rect width="860" height="860" fill="url(#bg)"/>
  <circle cx="134" cy="150" r="188" fill="#ffffff" opacity=".08"/>
  <circle cx="720" cy="708" r="248" fill="#ffffff" opacity=".08"/>
  <rect x="120" y="248" width="390" height="230" rx="34" fill="#ffffff" opacity=".9"/>
  <path d="M208 478 L164 550 L286 478 Z" fill="#ffffff" opacity=".9"/>
  <rect x="172" y="310" width="244" height="18" rx="9" fill="#7ebbc2"/>
  <rect x="172" y="358" width="178" height="18" rx="9" fill="#c7dce3"/>
  <rect x="172" y="406" width="220" height="18" rx="9" fill="#c7dce3"/>
  <rect x="350" y="430" width="390" height="230" rx="34" fill="#ffffff" opacity=".22"/>
  <path d="M644 660 L704 732 L556 660 Z" fill="#ffffff" opacity=".22"/>
  <rect x="410" y="496" width="214" height="18" rx="9" fill="#ffffff" opacity=".7"/>
  <rect x="410" y="544" width="266" height="18" rx="9" fill="#ffffff" opacity=".42"/>
  <path d="M654 270 H730 M692 232 V308" stroke="#ffffff" stroke-width="24" stroke-linecap="round" opacity=".78"/>
</svg>
